<?xml version="1.0" ?><!DOCTYPE svg  PUBLIC '-//W3C//DTD SVG 1.1//EN'  'http://www.w3.org/Graphics/SVG/1.1/DTD/svg11.dtd'><svg height="48px" id="Layer_1" style="enable-background:new 0 0 48 48;" version="1.1" viewBox="0 0 48 48" width="48px" xml:space="preserve" xmlns="http://www.w3.org/2000/svg" xmlns:xlink="http://www.w3.org/1999/xlink"><path d="M20.074,33.811c0,1.335-1.082,2.417-2.417,2.417l0,0  c-1.335,0-2.417-1.082-2.417-2.417l0,0c0-1.335,1.082-2.417,2.417-2.417l0,0C18.992,31.394,20.074,32.476,20.074,33.811  L20.074,33.811z" style="fill:none;stroke:#231F20;stroke-miterlimit:10;"/><path d="M32.074,33.728c0,1.335-1.082,2.417-2.417,2.417l0,0  c-1.335,0-2.417-1.082-2.417-2.417l0,0c0-1.335,1.082-2.417,2.417-2.417l0,0C30.992,31.311,32.074,32.393,32.074,33.728  L32.074,33.728z" style="fill:none;stroke:#231F20;stroke-miterlimit:10;"/><line style="fill:none;stroke:#231F20;stroke-miterlimit:10;" x1="17.657" x2="17.657" y1="31.247" y2="22.956"/><line style="fill:none;stroke:#231F20;stroke-miterlimit:10;" x1="29.709" x2="29.709" y1="31.06" y2="23.039"/><line style="fill:none;stroke:#231F20;stroke-miterlimit:10;" x1="30.209" x2="17.146" y1="23.039" y2="23.039"/><line style="fill:none;stroke:#231F20;stroke-miterlimit:10;" x1="23.501" x2="23.501" y1="22.789" y2="16.039"/><path d="M26.001,13.997c0,1.335-1.082,2.417-2.417,2.417l0,0  c-1.335,0-2.417-1.082-2.417-2.417l0,0c0-1.335,1.082-2.417,2.417-2.417l0,0C24.919,11.58,26.001,12.662,26.001,13.997  L26.001,13.997z" style="fill:none;stroke:#231F20;stroke-miterlimit:10;"/></svg>